<?xml version="1.0" encoding="utf-8"?>
<!-- Designed by Vexels.com - 2020 All Rights Reserved - https://vexels.com/terms-and-conditions/  -->
<svg version="1.1" id="Capa_1" xmlns="http://www.w3.org/2000/svg" xmlns:xlink="http://www.w3.org/1999/xlink" x="0px" y="0px" preserveAspectRatio="none meet"
	 viewBox="0 0 1200 1200" enable-background="new 0 0 1200 1200" xml:space="preserve">

<g>
	<g id="XMLID_17_">
		<g>
			<path d="M920.304,1080.429c0.095-0.024,0.143-0.048,0.19-0.071C920.446,1080.358,920.375,1080.382,920.304,1080.429z
				 M946.09,980.617c0.024,24.739,3.048,49.834,0.048,74.478c-1.381,11.262-5.476,20.191-9.453,30.263
				c-1.833,4.619-1.786,7.976-6.214,10.953c-11.096,7.453-28.453,9.572-41.096,12.524c-64.692,15.096-130.932,24.667-196.933,31.715
				c-26.382,2.81-52.93,5.214-79.549,6.881c-2.667,1.31-5.929,1.5-8.738,0.5c-53.763,3.072-107.764,3.072-161.194-2.381
				c-35.382-3.595-71.121-9.31-104.717-21.429c-25.691-9.262-51.977-22.024-69.811-43.263c-1.643-0.548-3.191-1.595-4.405-3.333
				c-17.619-25.286-9.857-63.525-9.381-92.264c1-60.406-2.524-129.693,32.739-182.29c13.262-19.786,36.929-34.072,58.335-43.477
				c17.786-7.81,37.31-9.81,55.882-15.048c16.358-4.595,32.501-9.905,47.787-17.405c0.143-0.071,0.31-0.095,0.452-0.167
				c-8.881-34.572,15.429-70.906,43.858-90.812c-5.191-4.31-10.143-8.833-14.667-13.572c-17.619-18.5-29.453-41.668-37.787-65.621
				c-5.333-15.31-14.596-48.215-15.381-49.549C389.22,442.962,360.6,372.08,349.148,298.768
				c-4.405-28.072-10.31-59.049-4.238-87.264c5.333-24.739,20.405-47.192,38.358-64.597c36.168-35.048,85.145-54.858,132.598-69.264
				c31.072-9.429,62.835-16.81,94.978-21.548c29.048-4.262,59.74-7.834,89.121-5.191c19.286,1.762,32.953,13.238,46.406,26.286
				c7.572,7.334,19.62,18.834,22.167,30.786c6.905-0.452,13.81-0.452,20.62,0.167c26.882,2.429,44.168,15.191,53.287,40.596
				c37.739,105.217,36.715,242.958-43.215,329.198c-0.524,3.81-1.024,7.595-1.595,11.405c-4.167,28.501-10.453,56.739-21.691,83.359
				c-12.167,28.858-30.501,51.096-53.835,68.263c26.667,22.143,46.763,58.668,34.382,92.169
				c25.858,14.667,55.763,18.429,84.073,26.524c28.096,8.024,53.12,21.239,70.525,45.382
				C946.59,854.257,946.042,922.592,946.09,980.617z M926.328,1058.476c2.286-11.738,2-24.048,1.69-35.977
				c-0.619-23.834-0.81-47.668-1.333-71.525c-0.786-35.62-2.643-78.764-18.358-113.503c-4.262,6.095-9.667,11.619-14.167,17.334
				c-8.929,11.31-16.024,23.429-22.905,36.048c-13.619,25.024-27.334,50.025-39.072,76.026
				c-11.691,25.905-20.929,52.668-26.858,80.478c-2.762,12.976-5.048,26.024-7.381,39.072c-1.119,6.286-1.619,14.095-3.143,21.31
				c32.191-5.143,64.24-11.286,95.836-18.953c7.572-1.833,15.167-3.738,22.62-6.143c0.667-0.214,2.619-0.809,4.119-1.262
				c0.857-2.905,3.214-7.072,3.595-7.786C923.637,1068.739,925.28,1063.953,926.328,1058.476z M917.399,1084.025
				c-0.381-0.309-0.381-1.024-0.19-1.929C916.708,1082.667,916.589,1083.334,917.399,1084.025z M879.303,848.233
				c6.643-7.976,13.596-17.572,21.881-24.286c-4.976-8.143-10.953-15.619-18.143-22.143c-19.262-17.5-45.501-23.62-70.097-29.501
				c-10.667-2.548-21.358-5.119-31.81-8.357c-4.953,4.81-9.167,11.024-13.167,15.977c-5.405,6.714-10.572,13.619-15.596,20.62
				c0.357,0.048,0.714,0.119,1.095,0.262c13.762,4.857,28.405,7.476,42.834,9.334c13,1.69,26.905,1.69,39.501,5.452
				c6.81,2.024,4.762,10.905-1.571,11.619c-14.238,1.595-29.691-1.286-43.739-3.619c-14.477-2.429-28.12-6.167-41.596-11.905
				c-1.357-0.571-2.167-1.5-2.595-2.595c-0.976,1.381-1.952,2.762-2.905,4.143c-8.095,11.738-16.119,23.667-23.691,35.834
				c5.572,0.738,11.119,1.452,16.691,2.167c2.833-4.762,5.738-9.453,8.691-14.048c3.167-4.881,10.357-1.667,9.191,3.881
				c-0.857,4.072-2.024,8.095-3.357,12.048c6.524,0.833,13.024,1.762,19.5,2.714c4.262-5.595,8.81-11.072,13.977-15.548
				c5.429-4.738,12.667,1.143,9.691,7.476c-2.786,5.929-6.572,11.5-10.548,16.905c-0.381,1.691-1.357,3.191-2.929,3.905
				c-1.762,2.357-3.5,4.667-5.191,6.976c-6.214,8.524-11.977,17.453-18.524,25.715c-5.357,6.738-14.286-1.905-11.119-8.572
				c3.833-8.048,8.976-15.524,14.262-22.786c-5.072-0.262-10.143-0.881-15.238-1.69c-6.929,14.905-15.81,29.191-22.834,43.668
				c-3.286,6.786-14.524,1.929-12.096-5.095c4.929-14.286,11.429-28.31,18.739-41.834c-5.429-1.286-10.81-2.667-16.096-4.024
				c-3.119,5.333-6.143,10.691-9.024,16.143c-10.905,20.524-21.024,41.572-30.382,62.93c13.667,2.762,27.405,4.929,41.191,6.929
				c15.834,2.286,32.667,3.214,47.763,8.762c6.095,2.238,5.381,11.548-1.571,11.619c-15.929,0.143-32.191-3.476-47.858-6.072
				c-15-2.476-29.786-5.619-44.358-9.905c-4.595,10.905-9.024,21.858-13.215,32.906c7.691,2.31,15.548,3.929,23.477,5.31
				c1.31-2.143,2.738-4.238,4.333-6.238c3.476-4.429,10.762,0.381,9.191,5.357c-0.31,0.976-0.619,1.952-0.929,2.952
				c6.714,1.071,13.405,2.167,20.024,3.548c1.929-2.071,3.952-4.024,6.072-5.786c4.857-4.024,11.691,0.952,8.762,6.786
				c-0.405,0.81-0.833,1.595-1.262,2.405c3.119,0.929,6.191,1.952,9.238,3.167c7.786,3.048,4.929,14.596-3.5,12.691
				c-4.405-0.976-8.834-1.833-13.286-2.643c-6.905,11.667-13.619,23.215-15.762,37.287c-1.071,7.072-12.715,5.286-12.357-1.667
				c0.69-12.715,4.952-26.477,11.881-38.358c-4.81-0.786-9.619-1.571-14.405-2.476c-3.429,11.738-6.333,23.5-7.595,35.929
				c-0.738,7.214-10.953,7.405-11.405,0c-0.762-13.238,0.286-26.667,4.476-39.001c-7.333-1.786-14.548-3.976-21.596-6.857
				c-1.048,2.857-2.143,5.738-3.167,8.619c-14.191,39.739-26.548,80.216-28.739,122.455c7.143-0.476,14.262-0.976,21.405-1.524
				c-1.595-5.524-0.881-12.048-0.048-17.596c1.571-10.262,3.953-20.5,6.167-30.644c1.095-5.095,8.976-4.953,10.167,0
				c1.857,7.691-0.643,16.143-1.548,23.834c-0.714,6.072-3.714,17.572-0.238,23.215c19.358-1.691,38.668-3.691,57.93-5.953
				c21.429-2.524,42.906-5.31,64.311-8.476c0.524-9.548,3.833-19.905,5.238-28.572c0.214-1.333,0.429-2.691,0.643-4.024
				c-10.072,1.143-20.905-0.262-30.834-0.643c-0.452-0.024-0.905-0.048-1.381-0.071c-1.714,9.024-4.286,17.738-8.595,25.667
				c-3.143,5.81-10.476,1.381-9.714-4.095c1.024-7.405,2.071-14.881,3.214-22.381c-7.953-0.5-15.929-1.072-23.882-1.572
				c-6.905-0.429-6.905-10.31,0-10.714c8.691-0.476,17.358-0.857,26.048-1.048c1.762-10.381,3.762-20.739,6.191-30.834
				c1.571-6.548,12.81-5.214,11.905,1.595c-1.238,9.381-1.905,19.286-3.048,29.096c10.453,0.024,22.001-1.048,32.406,0.762
				c1.167-7,2.405-14,3.81-20.977c5.595-27.882,15.286-54.668,26.763-80.621c4.214-9.5,8.667-18.881,13.31-28.167
				c-6.976-1-14.31-3.691-20.977-5.381c-2.905,6.119-5.286,12.405-6.048,19.286c-0.929,8.524-14.238,8.833-13.619,0
				c0.524-7.381,2.286-14.81,4.881-22.072c-3.691-0.667-7.357-1.357-11-2.095c-2.286,4.072-4.691,8.095-6.786,12.238
				c-3.286,6.453-12.977,0.762-9.715-5.667c1.643-3.191,3.572-6.191,5.619-9.095c-2.81-0.714-5.595-1.5-8.381-2.381
				c-6.881-2.19-4-12,2.952-10.691c4.548,0.857,9.119,1.524,13.715,2.119c0.333-0.429,0.643-0.857,0.976-1.286
				c2.333-3.143,8.453-1.69,7.643,2.31c3.572,0.429,7.119,0.81,10.691,1.262c4.048-8.072,8.905-15.691,14-22.477
				c2.619-3.476,9.929-3.024,9.357,2.524c-0.786,7.953-3.857,15.167-7.357,22.239c6.953,1.071,14.81,2.5,20.691,6.119
				c6.786-13.024,13.905-25.905,21.143-38.691C863.35,870.21,870.422,858.877,879.303,848.233z M850.731,272.577
				c-0.762-18.215-2.81-36.358-6.143-54.263c-2.405-12.905-5.405-25.715-9-38.358c-3.571-12.667-6.881-27.977-13.905-39.191
				c-13.596-21.715-47.144-18.286-68.692-14.596c-26.929,4.595-53.43,13.143-78.359,24.191c-1.929,0.833-3.786,1.738-5.691,2.595
				c53.501,13.953,87.835,69.002,109.764,116.646c14.715,31.953,26.215,65.882,30.572,100.883
				c2.381,19.096,3.048,39.715,0.81,59.811c12.405-19.024,17.762-40.144,17.262-63.287c-0.548-24.262-6.524-47.715-9.381-71.692
				c-0.762-6.286,8.31-6.381,10.215-1.381c7.929,20.881,13.691,43.977,14.715,66.787c2.619-11.095,4.619-22.405,5.976-33.858
				c-2.119-0.857-6.881-57.43-21.5-80.597c-3.452-5.452,5.31-10.81,8.786-5.143C842.468,251.386,847.254,261.815,850.731,272.577z
				 M792.491,388.27c-0.024-0.595-0.048-1.167-0.071-1.762c-2.167-12.215-3.595-24.167-9.453-35.929
				c-6.333-12.762-15.453-23.762-26.382-32.81c-43.191-35.739-108.288-41.906-161.67-32.977
				c-25.882,4.31-51.62,12.429-73.597,27.072c-38.263,25.548-67.406,71.906-83.645,114.288c-0.31,0.833-0.762,1.5-1.238,2.095
				c1.095,17.953,2.286,35.929,4.881,53.835c0.667,4.667,7.81,39.739,26.286,59.716c10.286,11.095,22.453,19.929,31.953,31.644
				c0.19,0.238,0.333,0.476,0.476,0.714c5.81,0.81,12.072,0.452,18.977-1.452c13-3.595,25.239-9.524,38.62-11.786
				c13.691-2.286,27.31-0.31,40.93,1.595c17.262,2.405,31.572,1.691,48.644-1.476c11.929-2.214,24.358-4.191,36.477-2.738
				c14.453,1.738,26.691,5.976,41.43,2.81c1.405-0.31,2.81-0.667,4.191-1.048c10.31-13.048,23.501-23.834,32.167-38.477
				c8.595-14.548,17.334-31.667,21.81-48.573c0.024-0.524,0.119-1.071,0.262-1.619c0.405-1.524,0.81-3.048,1.191-4.548
				c0.214-1.071,0.429-2.143,0.595-3.214c0.119-0.714,0.333-1.31,0.619-1.786c1.31-5.548,2.429-11.119,3.357-16.667
				C790.777,426.247,791.658,407.223,792.491,388.27z M775.824,317.245c2,2.119,4,4.429,5.929,6.833
				c-4.405-15.667-10.048-31.167-16.786-46.43c-2.571-5.833-5.286-11.691-8.143-17.477c-0.786-0.048-1.571-0.262-2.31-0.714
				c-9.238-5.572-17.024-12.905-26.715-17.929c-10.262-5.333-21.286-9.095-32.548-11.643c-20.262-4.595-41.287-4.643-61.906-2.857
				c-21.524,1.833-42.882,6.238-63.335,13.215c-19.453,6.619-36.334,16.858-54.335,26.167
				c-18.858,19.548-36.691,40.049-53.882,61.049c-10.524,12.857-21.739,25.715-30.405,39.953c-1.31,2.143,1.071,9.119,1.452,12.691
				c0.667,6.072,1.167,12.143,1.619,18.215c8.548-17.834,19.405-34.596,31.334-50.382c15.572-20.62,32.977-39.072,55.525-52.096
				c51.525-29.715,120.336-33.906,177.29-20.191C727.228,282.53,755.324,295.673,775.824,317.245z M757.657,755.136
				c-3.405-1.571-6.738-3.262-10.024-5.119c-9.143,13.619-21.548,25.239-34.025,35.525c-8.738,7.214-17.834,14.405-27.763,19.643
				c-8.786,4.595-18.191,7.714-28.596,7.953c-1.024,0.024-1.929-0.167-2.762-0.452c-0.976,0.238-2,0.31-3.095,0.095
				c-9.191-1.667-12.929-11.953-14.572-21.881c-2.548,0.857-5.214,1.524-7.714,2.381c-6.857,2.333-13.691,4.476-20.881,5.453
				c-12.477,1.738-24.501-0.976-33.048-9.715c-1.548,10.5-5.262,21.905-15.143,23.81c-1.119,0.214-2.214,0.143-3.238-0.143
				c-0.833,0.286-1.738,0.476-2.762,0.452c-23.215-0.571-41.882-14.572-59.24-28.62c-15.786-12.738-31.572-27.596-40.668-46.049
				c-0.238-0.5-0.429-1-0.667-1.5c-24.358,17.905-57.358,21.715-85.74,29.429c-0.667,0.167-1.31,0.381-1.976,0.548
				c1.619,2.095,3.238,4.214,5.286,6.214c5.81,5.762,14.167,9.119,21.072,13.453c17.096,10.714,33.572,20.762,52.573,27.834
				c36.358,13.477,74.645,19.643,113.288,20.929c37.453,1.262,75.168-4.429,110.145-18.096c6.691-2.619,13.143-5.595,19.405-8.953
				c11.405-6.072,22.12-13.262,32.286-21.477C732.585,776.565,744.419,764.851,757.657,755.136z M751.562,110.002
				c-1.381-5.572-8.381-12.619-11.072-15.667c-6.167-6.976-13.024-13.548-20.334-19.358c-19.215-15.286-50.454-9.81-73.43-7.976
				c-53.954,4.333-108.407,16.643-159.099,35.667c-41.43,15.548-86.288,38.215-111.55,76.097
				c-14.357,21.548-19.167,44.334-17.334,69.883c2.167,30.001,6.762,60.001,13.738,89.264c5.762,24.143,13.619,47.549,22.953,70.478
				c2.143,5.286,4.381,10.548,6.691,15.786c6.476,14.715,13.786,29.191,20.596,43.882c-3.143-25.334-5.405-51.477-3.976-76.93
				c-2.857,5.643-5.786,11.215-9.119,16.596c-3.167,5.143-9.31,3.333-11.215-0.833c-0.714-1.619-0.786-3.572,0.167-5.619
				c8.286-17.596,15.858-35.715,27.31-51.549c11.5-15.929,24.072-31.215,36.644-46.334c25.31-30.453,52.287-59.573,82.026-85.788
				c48.12-42.477,103.717-77.764,165.242-97.121C723.18,116.288,737.299,112.383,751.562,110.002z M741.49,731.326
				c13.905-30.167-5.572-62.144-28.263-84.216c-4.024,2.595-8.167,5.072-12.429,7.429c6.286,15.286,14.905,31.286,13.667,47.763
				c-1.31,17.072-16.738,29.644-31.477,35.739c-8.048,3.31-18.072,4.238-25.524,8.714c-6.595,3.976-6.595,11.381-6.905,18.5
				c-0.452,10.381-1.024,23.453,4.81,32.501c0.595-0.143,1.214-0.238,1.881-0.262c19.143-0.286,35.429-13.977,49.43-25.691
				c11.857-9.929,23.429-21,31.477-34.334C738.561,735.136,739.776,732.921,741.49,731.326z M706.203,219.052
				c11.619,3.167,24.786,7.929,36.167,14.81c-6.976-11.286-14.81-22.001-23.81-31.667c-18.239-19.572-40.62-31.905-65.049-41.763
				c-39.096,20.12-74.716,46.358-107.169,76.026c6.833-3.024,13.762-5.667,20.429-7.976c22.072-7.714,45.168-12.262,68.43-14.286
				C658.94,212.147,683.108,212.79,706.203,219.052z M739.776,788.732c-20.524,17.334-42.215,32.858-67.692,43.001
				c-36.144,14.405-75.335,20.405-114.122,20.548c-39.739,0.143-80.692-7.262-117.908-21.072
				c-18.953-7.024-36.048-16.429-53.073-27.286c-6.81-4.333-14.286-8.024-20.953-12.667c0.381,1.31,0.762,2.619,1.167,3.929
				c0.452,0.69,0.905,1.405,1.357,2.095c18.239,28.072,41.596,52.763,68.335,72.93c34.191,25.762,72.168,40.477,112.788,52.763
				c7,2.119,5.953,13.81-1.786,13.167c-43.644-3.619-85.55-26.572-119.717-53.001c-6.31-4.905,0.524,8.667,10.786,19.858
				c17,18.5,36.001,35.263,57.12,48.977c21.786,14.143,45.334,23.405,69.597,32.382c8.357,3.095,4.905,14.215-3.619,13.048
				c-53.311-7.238-102.312-46.811-136.932-85.883c-17.619-19.929-33.763-41.906-47.953-64.382
				c-9.357-14.81-7.524-0.238-0.405,15.215c15.715,34.096,36.501,65.597,57.906,96.336c21.62,31.072,45.072,61.12,72.073,87.74
				c13.143,13,27.167,25.096,42.025,36.096c7.953,5.881,16.143,11.5,24.572,16.691c3.572,2.214,7.191,4.357,10.881,6.429
				c1.643,0.929,10.524,6.929,11.191,6.929c1.452-0.119,2.762,0.238,3.905,0.905c3.381-33.81,12.453-66.525,23.477-98.907
				c13.477-39.596,28.929-79.93,47.953-118.05c-19.405,6.405-41.787,5.286-61.859,4.81c-32.81-0.738-65.716-5.453-96.431-17.358
				c-4.619-1.786-2.857-8.238,2.048-7.381c28.977,4.953,58.382,7.548,87.812,7.762c25.501,0.19,55.335,2.024,79.288-8.524
				c6.524-11.881,13.429-23.524,20.81-34.739C714.18,823.185,726.585,805.637,739.776,788.732z M696.108,607.252
				c6-7.214,11.548-15.215,15.5-23.81c-8.143-0.381-16.143-1.952-24.643-4.238c-16.5-4.405-30.167-1.548-46.382,2.333
				c-16.643,3.976-32.215,4.024-49.144,1.929c-17.548-2.19-31.644-1.952-48.525,3.619c-9.834,3.238-19.786,6.857-30.025,8.214
				c12.977,9.524,24.143,21.5,38.31,29.882c19.12,11.286,41.787,14.786,63.692,14.81c22.548,0,43.501-3.024,63.073-14.857
				C682.631,618.704,691.227,613.157,696.108,607.252z M692.798,714.468c17.524-16.81,4.643-35.882-1.881-54.835
				c-3.595,1.738-7.214,3.429-10.976,5.024c-51.549,21.905-106.336,22.453-155.027-6.714c-1.452-0.857-2.905-1.762-4.357-2.667
				c-6,20.405-23.001,41.239-3.357,59.216c14.405,13.191,36.929,10.191,50.62,23.262c9.476,9.072,9.238,25.096,8.572,37.525
				c0.976-0.024,1.976,0.238,2.905,0.905c12.143,8.691,22.096,9.643,36.287,5.167c6.191-1.952,13.024-6.048,19.715-7.167
				c-0.595-11.953-0.667-27.024,7.881-35.882C656.202,724.826,678.869,727.826,692.798,714.468z M598.201,1128.883
				c0-0.191,0.024-0.381,0.024-0.548c-0.452,0.238-0.929,0.452-1.405,0.619C597.272,1128.93,597.749,1128.907,598.201,1128.883z
				 M592.796,1129.145c-0.19-0.048-0.357-0.071-0.524-0.143c-18.881-6.786-36.334-19.5-52.335-31.382
				c-16.024-11.929-31.263-24.858-45.43-38.953c-28.905-28.691-53.763-61.311-76.621-94.931
				c-10.381-15.238-20.5-30.62-29.905-46.406c0.119,21.12-0.524,42.144-0.833,63.311c11.143,2.333,22.191,13.953,25.548,22.977
				c5.238,13.977,0.952,30.239-13.143,36.882c-17.953,8.476-43.049-1.119-49.906-19.929c-6.405-17.596,5.381-36.382,22.405-39.763
				c1.619-25.763,5.667-51.454,6.595-77.192c0.024-0.69,0.167-1.31,0.405-1.833c-8.024-14.572-15.31-29.524-21.453-45.096
				c-1.667-4.214-3.286-8.476-4.857-12.786c-0.857,10-2.119,19.858-2.952,29.144c-2.738,30.191-7.214,60.335-8.738,90.597
				c0,0.095-0.024,0.167-0.024,0.262c14.834,16.119-0.714,53.882-26.501,40.287c-28.12-14.81-7.976-55.168,12.667-52.501
				c2.071-25.262,5.762-50.477,8.691-75.621c1.833-15.977,3.595-31.953,4.643-48.001c0.405-6.119,1.262-12.786,1.524-19.334
				c-0.286-1.119-0.548-2.238-0.81-3.357c-2.024-9.095-3.691-18.739-2.833-28.072c-17.453,8.762-31.953,21.262-42.549,39.977
				c-15.048,26.667-20.405,58.12-22.953,88.264c-2.405,28.358-1.357,56.668-2.143,85.073c-0.643,23.905-6.905,57.525,7.976,78.287
				c0.5,0.714,0.833,1.429,1.095,2.119c53.358,44.287,128.074,53.93,195.076,57.787
				C514.151,1131.097,553.486,1130.954,592.796,1129.145z M556.129,797.804c6.453-9.429,5.714-24.072,4.929-34.929
				c-0.5-7.024-0.976-12.905-7.595-16.358c-8.095-4.238-18.024-5.262-26.524-8.762c-15.572-6.405-31.644-19.739-31.786-38.001
				c-0.143-17.691,10.143-34.191,16.238-50.43c-3.31-2.262-6.619-4.619-9.857-7.048c-26.31,22.715-52.311,59.335-32.453,93.216
				c8.667,14.786,21.834,26.739,35.096,37.358c14.334,11.5,30.667,24.358,49.858,24.643
				C554.795,797.518,555.486,797.637,556.129,797.804z M398.863,1022.642c3.619-6.381,1.071-15.143-3.452-20.381
				c-4.476-5.191-9.905-5.381-15.405-6.595c-0.238,0-0.452,0.024-0.667,0c-18.572-2.452-21.596,21.715-7.429,30.096
				C379.601,1030.309,393.696,1031.761,398.863,1022.642z M334.719,983.832c1.048-8.857-6.929-11.738-11.786-17.286
				c-3.762,0.81-7.429,5.381-9.095,9.095c-3.214,7.238,0.405,18.119,9.453,18.953C329.314,995.142,334.052,989.38,334.719,983.832z"
				/>
			<path fill="#EAC063" d="M928.018,1022.499c0.31,11.929,0.595,24.239-1.69,35.977c-1.048,5.476-2.691,10.262-5.357,15.12
				c-0.381,0.714-2.738,4.881-3.595,7.786c-1.5,0.452-3.452,1.048-4.119,1.262c-7.453,2.405-15.048,4.31-22.62,6.143
				c-31.596,7.667-63.644,13.81-95.836,18.953c1.524-7.214,2.024-15.024,3.143-21.31c2.333-13.048,4.619-26.096,7.381-39.072
				c5.929-27.81,15.167-54.573,26.858-80.478c11.738-26.001,25.453-51.001,39.072-76.026c6.881-12.619,13.977-24.739,22.905-36.048
				c4.5-5.714,9.905-11.238,14.167-17.334c15.715,34.739,17.572,77.883,18.358,113.503
				C927.208,974.832,927.399,998.665,928.018,1022.499z"/>
			<path fill="#C12B2B" d="M901.184,823.947c-8.286,6.714-15.238,16.31-21.881,24.286c-8.881,10.643-15.953,21.977-22.786,34.001
				c-7.238,12.786-14.357,25.667-21.143,38.691c-5.881-3.619-13.738-5.048-20.691-6.119c3.5-7.072,6.572-14.286,7.357-22.239
				c0.571-5.548-6.738-6-9.357-2.524c-5.095,6.786-9.953,14.405-14,22.477c-3.572-0.452-7.119-0.833-10.691-1.262
				c0.81-4-5.31-5.453-7.643-2.31c-0.333,0.429-0.643,0.857-0.976,1.286c-4.595-0.595-9.167-1.262-13.715-2.119
				c-6.953-1.31-9.834,8.5-2.952,10.691c2.786,0.881,5.572,1.667,8.381,2.381c-2.048,2.905-3.976,5.905-5.619,9.095
				c-3.262,6.429,6.429,12.119,9.715,5.667c2.095-4.143,4.5-8.167,6.786-12.238c3.643,0.738,7.31,1.429,11,2.095
				c-2.595,7.262-4.357,14.691-4.881,22.072c-0.619,8.833,12.691,8.524,13.619,0c0.762-6.881,3.143-13.167,6.048-19.286
				c6.667,1.691,14,4.381,20.977,5.381c-4.643,9.286-9.095,18.667-13.31,28.167c-11.476,25.953-21.167,52.739-26.763,80.621
				c-1.405,6.976-2.643,13.977-3.81,20.977c-10.405-1.81-21.953-0.738-32.406-0.762c1.143-9.81,1.81-19.715,3.048-29.096
				c0.905-6.81-10.334-8.143-11.905-1.595c-2.429,10.095-4.429,20.453-6.191,30.834c-8.691,0.19-17.358,0.571-26.048,1.048
				c-6.905,0.405-6.905,10.286,0,10.714c7.953,0.5,15.929,1.072,23.882,1.572c-1.143,7.5-2.191,14.977-3.214,22.381
				c-0.762,5.476,6.572,9.905,9.714,4.095c4.31-7.929,6.881-16.643,8.595-25.667c0.476,0.024,0.929,0.048,1.381,0.071
				c9.929,0.381,20.762,1.786,30.834,0.643c-0.214,1.333-0.429,2.691-0.643,4.024c-1.405,8.667-4.714,19.024-5.238,28.572
				c-21.405,3.167-42.882,5.953-64.311,8.476c-19.262,2.262-38.572,4.262-57.93,5.953c-3.476-5.643-0.476-17.143,0.238-23.215
				c0.905-7.691,3.405-16.143,1.548-23.834c-1.19-4.953-9.072-5.095-10.167,0c-2.214,10.143-4.595,20.381-6.167,30.644
				c-0.833,5.548-1.548,12.072,0.048,17.596c-7.143,0.548-14.262,1.048-21.405,1.524c2.19-42.239,14.548-82.716,28.739-122.455
				c1.024-2.881,2.119-5.762,3.167-8.619c7.048,2.881,14.262,5.072,21.596,6.857c-4.191,12.334-5.238,25.762-4.476,39.001
				c0.452,7.405,10.667,7.214,11.405,0c1.262-12.429,4.167-24.191,7.595-35.929c4.786,0.905,9.595,1.69,14.405,2.476
				c-6.929,11.881-11.191,25.643-11.881,38.358c-0.357,6.953,11.286,8.738,12.357,1.667c2.143-14.072,8.857-25.62,15.762-37.287
				c4.452,0.81,8.881,1.667,13.286,2.643c8.429,1.905,11.286-9.643,3.5-12.691c-3.048-1.214-6.119-2.238-9.238-3.167
				c0.429-0.81,0.857-1.595,1.262-2.405c2.929-5.833-3.905-10.81-8.762-6.786c-2.119,1.762-4.143,3.714-6.072,5.786
				c-6.619-1.381-13.31-2.476-20.024-3.548c0.31-1,0.619-1.976,0.929-2.952c1.571-4.976-5.714-9.786-9.191-5.357
				c-1.595,2-3.024,4.095-4.333,6.238c-7.929-1.381-15.786-3-23.477-5.31c4.191-11.048,8.619-22.001,13.215-32.906
				c14.572,4.286,29.358,7.429,44.358,9.905c15.667,2.595,31.929,6.214,47.858,6.072c6.953-0.071,7.667-9.381,1.571-11.619
				c-15.096-5.548-31.929-6.476-47.763-8.762c-13.786-2-27.524-4.167-41.191-6.929c9.357-21.358,19.477-42.406,30.382-62.93
				c2.881-5.453,5.905-10.81,9.024-16.143c5.286,1.357,10.667,2.738,16.096,4.024c-7.31,13.524-13.81,27.548-18.739,41.834
				c-2.429,7.024,8.81,11.881,12.096,5.095c7.024-14.477,15.905-28.763,22.834-43.668c5.095,0.81,10.167,1.429,15.238,1.69
				c-5.286,7.262-10.429,14.738-14.262,22.786c-3.167,6.667,5.762,15.31,11.119,8.572c6.548-8.262,12.31-17.191,18.524-25.715
				c1.69-2.31,3.429-4.619,5.191-6.976c1.571-0.714,2.548-2.214,2.929-3.905c3.976-5.405,7.762-10.976,10.548-16.905
				c2.976-6.333-4.262-12.215-9.691-7.476c-5.167,4.476-9.714,9.953-13.977,15.548c-6.476-0.952-12.977-1.881-19.5-2.714
				c1.333-3.953,2.5-7.976,3.357-12.048c1.167-5.548-6.024-8.762-9.191-3.881c-2.952,4.595-5.857,9.286-8.691,14.048
				c-5.572-0.714-11.119-1.429-16.691-2.167c7.572-12.167,15.596-24.096,23.691-35.834c0.952-1.381,1.929-2.762,2.905-4.143
				c0.429,1.095,1.238,2.024,2.595,2.595c13.477,5.738,27.12,9.476,41.596,11.905c14.048,2.333,29.501,5.214,43.739,3.619
				c6.333-0.714,8.381-9.595,1.571-11.619c-12.596-3.762-26.501-3.762-39.501-5.452c-14.429-1.857-29.072-4.476-42.834-9.334
				c-0.381-0.143-0.738-0.214-1.095-0.262c5.024-7,10.191-13.905,15.596-20.62c4-4.952,8.214-11.167,13.167-15.977
				c10.453,3.238,21.143,5.81,31.81,8.357c24.596,5.881,50.835,12,70.097,29.501C890.232,808.328,896.208,815.804,901.184,823.947z"
				/>
			<path fill="#EAC063" d="M844.588,218.314c3.333,17.905,5.381,36.048,6.143,54.263c-3.476-10.762-8.262-21.191-14.572-31.453
				c-3.476-5.667-12.238-0.31-8.786,5.143c14.619,23.167,19.381,79.74,21.5,80.597c-1.357,11.453-3.357,22.762-5.976,33.858
				c-1.024-22.81-6.786-45.906-14.715-66.787c-1.905-5-10.976-4.905-10.215,1.381c2.857,23.977,8.834,47.43,9.381,71.692
				c0.5,23.143-4.857,44.263-17.262,63.287c2.238-20.096,1.571-40.715-0.81-59.811c-4.357-35.001-15.857-68.93-30.572-100.883
				c-21.929-47.644-56.263-102.693-109.764-116.646c1.905-0.857,3.762-1.762,5.691-2.595c24.929-11.048,51.43-19.596,78.359-24.191
				c21.548-3.691,55.096-7.119,68.692,14.596c7.024,11.215,10.334,26.524,13.905,39.191
				C839.183,192.599,842.183,205.409,844.588,218.314z"/>
			<path fill="#E49366" d="M792.42,386.508c0.024,0.595,0.048,1.167,0.071,1.762c-0.833,18.953-1.714,37.977-3.191,56.906
				c-0.929,5.548-2.048,11.119-3.357,16.667c-0.286,0.476-0.5,1.071-0.619,1.786c-0.167,1.071-0.381,2.143-0.595,3.214
				c-0.381,1.5-0.786,3.024-1.191,4.548c-0.143,0.548-0.238,1.095-0.262,1.619c-4.476,16.905-13.215,34.025-21.81,48.573
				c-8.667,14.643-21.858,25.429-32.167,38.477c-1.381,0.381-2.786,0.738-4.191,1.048c-14.738,3.167-26.977-1.071-41.43-2.81
				c-12.119-1.452-24.548,0.524-36.477,2.738c-17.072,3.167-31.382,3.881-48.644,1.476c-13.619-1.905-27.239-3.881-40.93-1.595
				c-13.381,2.262-25.62,8.191-38.62,11.786c-6.905,1.905-13.167,2.262-18.977,1.452c-0.143-0.238-0.286-0.476-0.476-0.714
				c-9.5-11.715-21.667-20.548-31.953-31.644c-18.477-19.977-25.62-55.049-26.286-59.716c-2.595-17.905-3.786-35.882-4.881-53.835
				c0.476-0.595,0.929-1.262,1.238-2.095c16.238-42.382,45.382-88.74,83.645-114.288c21.977-14.643,47.715-22.762,73.597-27.072
				c53.382-8.929,118.479-2.762,161.67,32.977c10.929,9.048,20.048,20.048,26.382,32.81
				C788.824,362.341,790.253,374.294,792.42,386.508z M767.514,421.343c5.619,3.452,10.381-4.024,6.619-8.572
				c-19.358-23.524-53.192-32.882-82.145-36.144c-21.024-2.381-42.668,3.333-37.287,29.001c0.833,3.976,5.953,7,9.81,5.572
				c25.239-9.334,50.049-12.453,76.121-4.976C742.299,406.699,759.657,416.557,767.514,421.343z M756.824,463.772
				c5.714,5.024,15.762-1.5,11.119-8.572c-16.024-24.334-53.168-32.191-80.311-31.048c-22.143,0.952-50.025,23.31-31.763,46.358
				c18.096,22.858,87.859,21.453,94.907-12C752.776,460.201,754.8,461.963,756.824,463.772z M637.13,538.56
				c10.976-5.191,15.143-16.524,14.548-28.12c-0.738-14.357-5.095-29.048-7.786-43.144c-3.524-18.524-7.31-36.406-14.786-53.763
				c-2.024-4.691-9.191-1.286-8.024,3.381c6.5,25.858,9.334,52.311,14.405,78.43c2.095,10.786,6.786,26.334-6.5,31.405
				c-9.31,3.571-19.667-0.857-28.81,3.071c-3.953,1.691-3.833,8.548,0,10.262C610.13,544.56,627.297,543.226,637.13,538.56z
				 M585.01,404.557c4.833-25.62-16.286-31.144-37.406-28.453c-28.929,3.714-62.835,13.857-81.74,37.787
				c-3.548,4.476,0.952,12.238,6.643,8.595c7.714-4.953,14.643-10.81,22.239-15.858c1.167,0.548,2.595,0.667,4.286,0.143
				c25.905-8,50.739-5.476,76.168,3.357C579.034,411.438,584.248,408.58,585.01,404.557z M583.796,470.51
				c18.143-22.929-9.5-45.62-31.763-46.358c-27.239-0.881-64.168,6.548-80.288,31.048c-4.619,7,5.333,13.643,11.095,8.572
				c2.048-1.81,4.048-3.572,6.048-5.286C495.937,491.963,565.7,493.392,583.796,470.51z"/>
			<path fill="#C2891E" d="M781.753,324.078c-1.929-2.405-3.929-4.714-5.929-6.833c-20.5-21.572-48.596-34.715-77.216-41.596
				c-56.954-13.715-125.765-9.524-177.29,20.191c-22.548,13.024-39.953,31.477-55.525,52.096
				c-11.929,15.786-22.786,32.548-31.334,50.382c-0.452-6.072-0.952-12.143-1.619-18.215c-0.381-3.572-2.762-10.548-1.452-12.691
				c8.667-14.238,19.881-27.096,30.405-39.953c17.191-21,35.025-41.501,53.882-61.049c18-9.31,34.882-19.548,54.335-26.167
				c20.453-6.976,41.81-11.381,63.335-13.215c20.62-1.786,41.644-1.738,61.906,2.857c11.262,2.548,22.286,6.31,32.548,11.643
				c9.691,5.024,17.477,12.357,26.715,17.929c0.738,0.452,1.524,0.667,2.31,0.714c2.857,5.786,5.572,11.643,8.143,17.477
				C771.705,292.911,777.348,308.411,781.753,324.078z"/>
			<path d="M774.134,412.771c3.762,4.548-1,12.024-6.619,8.572c-7.857-4.786-25.215-14.643-26.882-15.119
				c-26.072-7.476-50.882-4.357-76.121,4.976c-3.857,1.429-8.976-1.595-9.81-5.572c-5.381-25.667,16.262-31.382,37.287-29.001
				C720.942,379.889,754.776,389.247,774.134,412.771z"/>
			<path d="M767.943,455.201c4.643,7.072-5.405,13.596-11.119,8.572c-2.024-1.81-4.048-3.572-6.048-5.262
				c-7.048,33.453-76.811,34.858-94.907,12c-18.262-23.048,9.619-45.406,31.763-46.358
				C714.775,423.009,751.919,430.867,767.943,455.201z M716.632,469.558c10.524-3.357,19.715-9.619,24.739-18.596
				c-9.476-7.048-19.358-12.381-31.477-14.691C717.513,444.034,720.061,458.439,716.632,469.558z M684.727,471.01
				c-0.429-1.643-0.762-3.31-0.952-4.929c-0.595-4.81-0.643-9.619-0.738-14.453c-0.048-2.024-0.214-4.072-0.214-6.119
				c0-1.357-0.119-2.571,0.19-3.952c0.095-0.5,0.31-0.976,0.5-1.429c-0.024-1.381,0.357-2.548,1.024-3.524
				c-5.072,1.381-9.857,3.738-13.738,7.405c-8.167,7.714-7.143,17.381,2.786,22.81C676.965,468.677,680.75,470.058,684.727,471.01z"
				/>
			<path fill="#EAC063" d="M747.633,750.017c3.286,1.857,6.619,3.548,10.024,5.119c-13.238,9.714-25.072,21.429-37.858,31.715
				c-10.167,8.214-20.881,15.405-32.286,21.477l-1.667-3.143c9.929-5.238,19.024-12.429,27.763-19.643
				C726.085,775.256,738.49,763.636,747.633,750.017z"/>
			<path fill="#EAC063" d="M740.49,94.335c2.691,3.048,9.691,10.095,11.072,15.667c-14.262,2.381-28.382,6.286-41.763,10.476
				c-61.525,19.358-117.122,54.644-165.242,97.121c-29.739,26.215-56.716,55.335-82.026,85.788
				c-12.572,15.119-25.143,30.405-36.644,46.334c-11.453,15.834-19.024,33.953-27.31,51.549c-0.952,2.048-0.881,4-0.167,5.619
				l-2.976,1.5c-9.334-22.929-17.191-46.334-22.953-70.478c-6.976-29.263-11.572-59.263-13.738-89.264
				c-1.833-25.548,2.976-48.334,17.334-69.883c25.262-37.882,70.121-60.549,111.55-76.097
				c50.692-19.024,105.145-31.334,159.099-35.667c22.977-1.833,54.216-7.31,73.43,7.976
				C727.466,80.787,734.323,87.359,740.49,94.335z M420.816,301.435c2.976,4.714,10,1.643,8.857-3.714
				c-3.452-15.905-7.405-31.548-8.334-47.882c-0.881-15.572,0.143-31.167,1.262-46.692c0.595-8.048-11.595-7.834-12.429,0
				C406.816,235.529,402.625,272.506,420.816,301.435z M407.268,341.293c3.786,2.952,8.643-0.571,6.619-5.095
				c-11-24.382-17.477-48.358-22.191-74.716c-4.095-22.881-9.691-52.644,2.476-73.954c3.595-6.286-5.714-11.596-9.619-5.619
				c-14.905,22.691-10.834,53.906-6.953,79.288C381.529,286.911,385.053,323.983,407.268,341.293z"/>
			<path fill="#C12B2B" d="M713.227,647.11c22.691,22.072,42.168,54.049,28.263,84.216c-1.714,1.595-2.929,3.81-3.333,6.143
				c-8.048,13.334-19.62,24.405-31.477,34.334c-14,11.715-30.286,25.405-49.43,25.691c-0.667,0.024-1.286,0.119-1.881,0.262
				c-5.833-9.048-5.262-22.12-4.81-32.501c0.31-7.119,0.31-14.524,6.905-18.5c7.453-4.476,17.477-5.405,25.524-8.714
				c14.738-6.095,30.167-18.667,31.477-35.739c1.238-16.477-7.381-32.477-13.667-47.763
				C705.061,652.181,709.203,649.705,713.227,647.11z"/>
			<path fill="#FCE6D2" d="M741.371,450.962c-5.024,8.976-14.215,15.238-24.739,18.596c3.429-11.119,0.881-25.524-6.738-33.286
				C722.013,438.581,731.894,443.915,741.371,450.962z"/>
			<path fill="#C12B2B" d="M742.371,233.862c-11.381-6.881-24.548-11.643-36.167-14.81c-23.096-6.262-47.263-6.905-71.002-4.857
				c-23.262,2.024-46.358,6.572-68.43,14.286c-6.667,2.31-13.596,4.952-20.429,7.976c32.453-29.667,68.073-55.906,107.169-76.026
				c24.429,9.857,46.811,22.191,65.049,41.763C727.561,211.862,735.395,222.576,742.371,233.862z"/>
			<path fill="#C2891E" d="M672.084,831.733c25.477-10.143,47.168-25.667,67.692-43.001c-13.191,16.905-25.596,34.453-37.358,52.358
				c-7.381,11.215-14.286,22.858-20.81,34.739c-23.953,10.548-53.787,8.714-79.288,8.524c-29.429-0.214-58.835-2.81-87.812-7.762
				c-4.905-0.857-6.667,5.595-2.048,7.381c30.715,11.905,63.62,16.619,96.431,17.358c20.072,0.476,42.453,1.595,61.859-4.81
				c-19.024,38.12-34.477,78.454-47.953,118.05c-11.024,32.382-20.096,65.097-23.477,98.907c-1.143-0.667-2.452-1.024-3.905-0.905
				c-0.667,0-9.548-6-11.191-6.929c-3.691-2.072-7.31-4.214-10.881-6.429c-8.429-5.191-16.619-10.81-24.572-16.691
				c-14.857-11-28.882-23.096-42.025-36.096c-27.001-26.62-50.454-56.668-72.073-87.74c-21.405-30.739-42.191-62.24-57.906-96.336
				c-7.119-15.453-8.953-30.024,0.405-15.215c14.191,22.477,30.334,44.453,47.953,64.382c34.62,39.072,83.621,78.645,136.932,85.883
				c8.524,1.167,11.976-9.953,3.619-13.048c-24.263-8.976-47.811-18.239-69.597-32.382c-21.12-13.715-40.12-30.477-57.12-48.977
				c-10.262-11.191-17.096-24.762-10.786-19.858c34.167,26.429,76.073,49.382,119.717,53.001c7.738,0.643,8.786-11.048,1.786-13.167
				c-40.62-12.286-78.597-27.001-112.788-52.763c-26.739-20.167-50.096-44.858-68.335-72.93c-0.452-0.69-0.905-1.405-1.357-2.095
				c-0.405-1.31-0.786-2.619-1.167-3.929c6.667,4.643,14.143,8.333,20.953,12.667c17.024,10.857,34.12,20.262,53.073,27.286
				c37.215,13.81,78.168,21.215,117.908,21.072C596.749,852.138,635.94,846.138,672.084,831.733z"/>
			<path fill="#E49366" d="M711.608,583.442c-3.952,8.595-9.5,16.596-15.5,23.81c-4.881,5.905-13.477,11.453-18.143,17.881
				c-19.572,11.834-40.525,14.857-63.073,14.857c-21.905-0.024-44.572-3.524-63.692-14.81c-14.167-8.381-25.334-20.358-38.31-29.882
				c10.238-1.357,20.191-4.976,30.025-8.214c16.881-5.572,30.977-5.81,48.525-3.619c16.929,2.095,32.501,2.048,49.144-1.929
				c16.215-3.881,29.882-6.738,46.382-2.333C695.465,581.489,703.465,583.061,711.608,583.442z M681.417,591.656
				c3.524-4.881-4.095-10.429-8.167-6.31c-8.524,8.572-22.715,9.786-32.977,15.834c-3.619,2.119-2.262,8.548,2.238,8.238
				C657.321,608.466,672.369,604.228,681.417,591.656z M592.487,610.752c5.976-0.81,5.357-10.191,0-11.5
				c-10.715-2.571-21.62-3.262-31.715-8.048c-6.953-3.31-12.762,6.238-6.095,10.405C566.034,608.68,579.105,612.561,592.487,610.752
				z"/>
			<path fill="#E49366" d="M690.917,659.634c6.524,18.953,19.405,38.025,1.881,54.835c-13.929,13.357-36.596,10.357-49.62,23.834
				c-8.548,8.857-8.476,23.929-7.881,35.882c-6.691,1.119-13.524,5.214-19.715,7.167c-14.191,4.476-24.143,3.524-36.287-5.167
				c-0.929-0.667-1.929-0.929-2.905-0.905c0.667-12.429,0.905-28.453-8.572-37.525c-13.691-13.072-36.215-10.072-50.62-23.262
				c-19.643-17.977-2.643-38.81,3.357-59.216c1.452,0.905,2.905,1.81,4.357,2.667c48.692,29.167,103.479,28.62,155.027,6.714
				C683.703,663.063,687.322,661.372,690.917,659.634z"/>
			<path fill="#EAC063" d="M685.846,805.185l1.667,3.143c-6.262,3.357-12.715,6.333-19.405,8.953
				c-34.977,13.667-72.692,19.358-110.145,18.096c-38.644-1.286-76.93-7.453-113.288-20.929c-19-7.072-35.477-17.119-52.573-27.834
				c-6.905-4.333-15.262-7.691-21.072-13.453c-2.048-2-3.667-4.119-5.286-6.214c0.667-0.167,1.31-0.381,1.976-0.548
				c28.382-7.714,61.382-11.524,85.74-29.429c0.238,0.5,0.429,1,0.667,1.5c9.095,18.453,24.882,33.31,40.668,46.049
				c17.358,14.048,36.025,28.048,59.24,28.62c1.024,0.024,1.929-0.167,2.762-0.452c1.024,0.286,2.119,0.357,3.238,0.143
				c9.881-1.905,13.596-13.31,15.143-23.81c8.548,8.738,20.572,11.453,33.048,9.715c7.191-0.976,14.024-3.119,20.881-5.453
				c2.5-0.857,5.167-1.524,7.714-2.381c1.643,9.929,5.381,20.215,14.572,21.881c1.095,0.214,2.119,0.143,3.095-0.095
				c0.833,0.286,1.738,0.476,2.762,0.452C667.655,812.899,677.06,809.78,685.846,805.185z"/>
			<path fill="#FCE6D2" d="M683.774,466.082c0.19,1.619,0.524,3.286,0.952,4.929c-3.976-0.952-7.762-2.333-11.143-4.191
				c-9.929-5.429-10.953-15.096-2.786-22.81c3.881-3.667,8.667-6.024,13.738-7.405c-0.667,0.976-1.048,2.143-1.024,3.524
				c-0.19,0.452-0.405,0.929-0.5,1.429c-0.31,1.381-0.19,2.595-0.19,3.952c0,2.048,0.167,4.095,0.214,6.119
				C683.131,456.462,683.179,461.272,683.774,466.082z"/>
			<path d="M673.25,585.346c4.071-4.119,11.691,1.429,8.167,6.31c-9.048,12.572-24.096,16.81-38.906,17.762
				c-4.5,0.31-5.857-6.119-2.238-8.238C650.535,595.132,664.726,593.918,673.25,585.346z"/>
			<path d="M651.678,510.44c0.595,11.595-3.572,22.929-14.548,28.12c-9.834,4.667-27.001,6-36.953,1.524
				c-3.833-1.714-3.953-8.572,0-10.262c9.143-3.929,19.5,0.5,28.81-3.071c13.286-5.072,8.595-20.62,6.5-31.405
				c-5.072-26.12-7.905-52.573-14.405-78.43c-1.167-4.667,6-8.072,8.024-3.381c7.476,17.358,11.262,35.239,14.786,53.763
				C646.583,481.392,650.94,496.082,651.678,510.44z"/>
			<path d="M592.487,599.251c5.357,1.31,5.976,10.691,0,11.5c-13.381,1.81-26.453-2.071-37.81-9.143
				c-6.667-4.167-0.857-13.715,6.095-10.405C570.867,595.99,581.772,596.68,592.487,599.251z"/>
			<path fill="#EAC063" d="M592.272,1129.002c0.167,0.071,0.333,0.095,0.524,0.143c-39.31,1.81-78.645,1.952-117.884-0.333
				c-67.002-3.857-141.718-13.5-195.076-57.787c-0.262-0.691-0.595-1.405-1.095-2.119c-14.881-20.762-8.619-54.382-7.976-78.287
				c0.786-28.405-0.262-56.716,2.143-85.073c2.548-30.144,7.905-61.597,22.953-88.264c10.595-18.715,25.096-31.215,42.549-39.977
				c-0.857,9.334,0.81,18.977,2.833,28.072c0.262,1.119,0.524,2.238,0.81,3.357c-0.262,6.548-1.119,13.215-1.524,19.334
				c-1.048,16.048-2.81,32.025-4.643,48.001c-2.929,25.143-6.619,50.358-8.691,75.621c-20.643-2.667-40.787,37.691-12.667,52.501
				c25.786,13.596,41.334-24.167,26.501-40.287c0-0.095,0.024-0.167,0.024-0.262c1.524-30.263,6-60.406,8.738-90.597
				c0.833-9.286,2.095-19.143,2.952-29.144c1.571,4.31,3.191,8.572,4.857,12.786c6.143,15.572,13.429,30.525,21.453,45.096
				c-0.238,0.524-0.381,1.143-0.405,1.833c-0.929,25.739-4.976,51.43-6.595,77.192c-17.024,3.381-28.81,22.167-22.405,39.763
				c6.857,18.81,31.953,28.405,49.906,19.929c14.096-6.643,18.381-22.905,13.143-36.882c-3.357-9.024-14.405-20.643-25.548-22.977
				c0.31-21.167,0.952-42.191,0.833-63.311c9.405,15.786,19.524,31.167,29.905,46.406c22.858,33.62,47.715,66.24,76.621,94.931
				c14.167,14.096,29.405,27.024,45.43,38.953C555.938,1109.501,573.391,1122.216,592.272,1129.002z"/>
			<path d="M547.604,376.103c21.12-2.691,42.239,2.833,37.406,28.453c-0.762,4.024-5.976,6.881-9.81,5.572
				c-25.429-8.834-50.263-11.357-76.168-3.357c-1.691,0.524-3.119,0.405-4.286-0.143c-7.595,5.048-14.524,10.905-22.239,15.858
				c-5.691,3.643-10.191-4.119-6.643-8.595C484.77,389.961,518.675,379.818,547.604,376.103z"/>
			<path d="M552.033,424.152c22.262,0.738,49.906,23.429,31.763,46.358c-18.096,22.881-87.859,21.453-94.907-12.024
				c-2,1.714-4,3.476-6.048,5.286c-5.762,5.072-15.715-1.571-11.095-8.572C487.865,430.7,524.794,423.271,552.033,424.152z
				 M566.081,466.82c10.738-5.881,10.619-16.31,1.619-23.882c-3.976-3.357-8.714-5.429-13.715-6.619
				c0.214,0.548,0.381,1.095,0.429,1.738c0.119,0.262,0.214,0.571,0.357,0.929c0.071,0.238,0.167,0.452,0.238,0.69
				c0.476,1.857,0.19,2.524,0.19,4.191c-0.024,1.762-0.143,3.548-0.167,5.333c-0.095,4.333-0.214,8.667-0.81,12.976
				c-0.476,3.381-1.595,6.81-3.357,9.619C556.367,470.939,561.557,469.296,566.081,466.82z M522.413,454.534
				c0.333-5.643,2.143-12.929,5.976-18.024c-11.572,2.429-21.048,7.643-30.12,14.405c5.548,9.929,16.191,16.524,28.072,19.596
				C523.318,465.987,522.056,460.105,522.413,454.534z"/>
			<path fill="#FCE6D2" d="M567.7,442.938c9,7.572,9.119,18-1.619,23.882c-4.524,2.476-9.714,4.119-15.215,4.976
				c1.762-2.81,2.881-6.238,3.357-9.619c0.595-4.31,0.714-8.643,0.81-12.976c0.024-1.786,0.143-3.572,0.167-5.333
				c0-1.667,0.286-2.333-0.19-4.191c-0.071-0.238-0.167-0.452-0.238-0.69c-0.143-0.357-0.238-0.667-0.357-0.929
				c-0.048-0.643-0.214-1.19-0.429-1.738C558.986,437.51,563.724,439.581,567.7,442.938z"/>
			<path fill="#C12B2B" d="M561.057,762.874c0.786,10.857,1.524,25.501-4.929,34.929c-0.643-0.167-1.333-0.286-2.095-0.31
				c-19.191-0.286-35.525-13.143-49.858-24.643c-13.262-10.619-26.429-22.572-35.096-37.358
				c-19.858-33.882,6.143-70.502,32.453-93.216c3.238,2.429,6.548,4.786,9.857,7.048c-6.095,16.239-16.381,32.739-16.238,50.43
				c0.143,18.262,16.215,31.596,31.786,38.001c8.5,3.5,18.429,4.524,26.524,8.762C560.081,749.969,560.557,755.85,561.057,762.874z"
				/>
			<path fill="#FCE6D2" d="M528.39,436.51c-3.833,5.095-5.643,12.381-5.976,18.024c-0.357,5.572,0.905,11.453,3.929,15.977
				c-11.881-3.072-22.524-9.667-28.072-19.596C507.342,444.153,516.818,438.938,528.39,436.51z"/>
			<path d="M429.673,297.721c1.143,5.357-5.881,8.429-8.857,3.714c-18.191-28.929-14-65.906-10.643-98.288
				c0.833-7.834,13.024-8.048,12.429,0c-1.119,15.524-2.143,31.12-1.262,46.692C422.268,266.172,426.221,281.816,429.673,297.721z"
				/>
			<path fill="#EAC063" d="M418.744,391.128c-1.429,25.453,0.833,51.596,3.976,76.93c-6.81-14.691-14.119-29.167-20.596-43.882
				c-2.31-5.238-4.548-10.5-6.691-15.786l2.976-1.5c1.905,4.167,8.048,5.976,11.215,0.833
				C412.959,402.342,415.887,396.771,418.744,391.128z"/>
			<path d="M413.887,336.198c2.024,4.524-2.833,8.048-6.619,5.095c-22.215-17.31-25.739-54.382-29.667-80.097
				c-3.881-25.382-7.953-56.597,6.953-79.288c3.905-5.976,13.215-0.667,9.619,5.619c-12.167,21.31-6.572,51.073-2.476,73.954
				C396.411,287.84,402.887,311.816,413.887,336.198z"/>
			<path fill="#C12B2B" d="M395.411,1002.261c4.524,5.238,7.072,14,3.452,20.381c-5.167,9.119-19.262,7.667-26.953,3.119
				c-14.167-8.381-11.143-32.548,7.429-30.096c0.214,0.024,0.429,0,0.667,0C385.506,996.88,390.934,997.07,395.411,1002.261z"/>
			<path fill="#C12B2B" d="M322.933,966.546c4.857,5.548,12.834,8.429,11.786,17.286c-0.667,5.548-5.405,11.31-11.429,10.762
				c-9.048-0.833-12.667-11.715-9.453-18.953C315.504,971.927,319.171,967.355,322.933,966.546z"/>
		</g>
	</g>
</g>
</svg>
